<?xml version="1.0"?>
<svg xmlns="http://www.w3.org/2000/svg" xmlns:xlink="http://www.w3.org/1999/xlink" xmlns:svgjs="http://svgjs.com/svgjs" version="1.1" width="512" height="512" x="0" y="0" viewBox="0 0 24 24" style="enable-background:new 0 0 512 512" xml:space="preserve" class=""><circle r="12" cx="12" cy="12" fill="#ffffff" shape="circle"/><g transform="matrix(0.7,0,0,0.7,3.6000000000000014,3.75)"><path xmlns="http://www.w3.org/2000/svg" d="m15.5 19h-9c-.276 0-.5-.224-.5-.5s.224-.5.5-.5h8.5v-13h-14v13h1.5c.276 0 .5.224.5.5s-.224.5-.5.5h-2c-.276 0-.5-.224-.5-.5v-14c0-.276.224-.5.5-.5h15c.276 0 .5.224.5.5v14c0 .276-.224.5-.5.5z" fill="#000000" data-original="#000000" style="" class=""/><path xmlns="http://www.w3.org/2000/svg" d="m23.5 19h-2.5c-.276 0-.5-.224-.5-.5s.224-.5.5-.5h2v-6.5c0-1.93-1.57-3.5-3.5-3.5h-3.5v10h1c.276 0 .5.224.5.5s-.224.5-.5.5h-1.5c-.276 0-.5-.224-.5-.5v-11c0-.276.224-.5.5-.5h4c2.481 0 4.5 2.019 4.5 4.5v7c0 .276-.224.5-.5.5z" fill="#000000" data-original="#000000" style="" class=""/><path xmlns="http://www.w3.org/2000/svg" d="m19 21c-1.379 0-2.5-1.122-2.5-2.5s1.121-2.5 2.5-2.5 2.5 1.122 2.5 2.5-1.121 2.5-2.5 2.5zm0-4c-.827 0-1.5.673-1.5 1.5s.673 1.5 1.5 1.5 1.5-.673 1.5-1.5-.673-1.5-1.5-1.5z" fill="#000000" data-original="#000000" style="" class=""/><path xmlns="http://www.w3.org/2000/svg" d="m4.5 21c-1.379 0-2.5-1.122-2.5-2.5s1.121-2.5 2.5-2.5 2.5 1.122 2.5 2.5-1.121 2.5-2.5 2.5zm0-4c-.827 0-1.5.673-1.5 1.5s.673 1.5 1.5 1.5 1.5-.673 1.5-1.5-.673-1.5-1.5-1.5z" fill="#000000" data-original="#000000" style="" class=""/></g></svg>
